<?xml version="1.0" standalone="no"?>
<!DOCTYPE svg PUBLIC "-//W3C//DTD SVG 20010904//EN"
 "http://www.w3.org/TR/2001/REC-SVG-20010904/DTD/svg10.dtd">
<svg version="1.0" xmlns="http://www.w3.org/2000/svg"
 width="500.000000pt" height="499.000000pt" viewBox="0 0 500.000000 499.000000"
 preserveAspectRatio="xMidYMid meet">
<metadata>
Created by potrace 1.16, written by Peter Selinger 2001-2019
</metadata>
<g transform="translate(0.000000,499.000000) scale(0.100000,-0.100000)"
fill="#000000" stroke="none">
<path d="M1069 3286 c-68 -46 -69 -54 -69 -428 1 -431 -8 -411 215 -528 161
-84 264 -139 425 -225 74 -40 180 -96 235 -125 55 -29 132 -69 170 -90 118
-63 287 -152 345 -182 85 -43 139 -39 253 18 51 25 97 49 102 53 6 5 69 38
140 76 153 79 280 147 350 185 28 15 104 56 170 90 309 162 512 274 534 294
13 11 32 40 42 64 17 40 19 73 19 373 0 380 -1 386 -83 429 l-45 24 -354 -18
c-194 -10 -501 -26 -683 -36 -360 -19 -294 -21 -1330 35 -387 20 -392 20 -436
-9z m731 -68 c500 -28 905 -28 1400 0 206 11 443 24 527 28 l152 7 31 -31 30
-30 0 -329 0 -329 -26 -41 c-15 -23 -45 -49 -68 -61 -22 -12 -86 -45 -141 -75
-55 -29 -158 -84 -230 -122 -71 -37 -186 -98 -255 -135 -69 -37 -174 -93 -235
-125 -60 -32 -132 -70 -160 -85 -181 -101 -288 -150 -326 -150 -37 0 -120 39
-384 180 -38 21 -104 55 -145 77 -41 22 -115 62 -165 89 -49 26 -137 73 -196
103 -477 252 -501 266 -525 301 l-24 35 0 333 0 334 31 30 30 31 147 -7 c81
-4 320 -17 532 -28z"/>
<path d="M1112 3198 c-9 -9 -12 -98 -12 -342 1 -302 2 -333 18 -352 10 -12 72
-50 138 -84 65 -35 150 -81 187 -102 38 -21 70 -38 72 -38 2 0 61 -31 132 -68
70 -38 178 -95 238 -127 61 -32 133 -70 160 -85 28 -15 100 -53 160 -85 61
-32 143 -76 183 -98 102 -55 128 -51 297 40 72 39 175 94 230 123 103 54 197
104 320 170 39 20 115 61 170 90 55 29 168 89 250 133 83 45 162 87 177 94 15
8 37 26 48 40 19 25 20 40 20 353 0 286 -2 329 -16 341 -17 14 -368 3 -849
-28 -299 -19 -752 -21 -997 -4 -219 14 -760 41 -848 41 -38 0 -71 -5 -78 -12z
m218 -199 l0 -101 73 -147 72 -146 3 244 c2 216 4 242 18 237 9 -3 29 -6 45
-6 l29 0 0 -356 0 -355 -47 26 c-45 24 -52 34 -103 143 -30 64 -83 170 -117
234 l-63 117 0 105 0 106 45 0 45 0 0 -101z m2428 -176 l-3 -278 -42 -23 -43
-23 0 300 0 301 45 0 45 0 -2 -277z m-198 163 c0 -58 -3 -107 -7 -109 -5 -2
-25 -7 -45 -11 l-38 -7 0 66 0 65 -44 0 c-81 0 -76 21 -76 -286 0 -151 3 -274
6 -274 3 0 30 12 60 26 l54 25 0 74 0 73 45 15 46 14 -3 -109 -3 -110 -60 -32
c-172 -93 -235 -126 -240 -126 -8 0 -6 790 3 791 4 1 61 5 127 9 66 3 132 7
148 8 l27 2 0 -104z m-1642 79 c8 -3 12 -24 12 -61 l0 -56 -85 7 -85 7 0 -115
0 -116 43 -11 c23 -6 48 -13 55 -15 7 -3 12 -24 12 -59 l0 -55 -32 11 c-18 5
-43 12 -56 15 l-23 5 3 -123 3 -124 83 -40 82 -40 0 -58 0 -58 -130 68 -130
68 0 381 0 380 118 -4 c64 -2 123 -5 130 -7z m1230 -405 c1 -223 0 -414 -2
-425 -3 -12 -29 -32 -63 -50 -32 -16 -92 -48 -133 -71 -41 -23 -85 -44 -97
-48 l-23 -7 0 495 0 496 50 0 50 0 0 -410 c0 -225 2 -410 5 -410 2 0 29 12 60
27 l55 27 0 387 c0 430 -5 399 65 396 l30 -2 3 -405z m-925 384 l107 -6 0
-164 c0 -182 4 -172 -69 -158 l-31 7 0 98 0 99 -32 0 c-18 0 -43 3 -55 6 -23
6 -23 5 -23 -86 l0 -92 68 -126 c38 -70 85 -159 105 -198 l37 -72 0 -191 c0
-105 -3 -191 -7 -191 -5 1 -73 36 -153 79 l-145 79 -3 151 c-2 96 1 151 8 151
5 0 28 -7 50 -16 l40 -16 0 -99 0 -99 50 -25 c27 -14 52 -25 55 -25 3 0 5 45
5 101 0 100 0 101 -47 192 -26 51 -73 138 -105 195 l-58 103 0 153 c0 84 3
156 7 160 4 3 25 4 47 2 23 -3 89 -8 149 -12z m507 -336 l0 -333 -100 -34
-100 -35 -2 -210 c-3 -209 -3 -211 -25 -214 -12 -2 -33 4 -47 14 l-26 16 0
559 0 558 88 4 c48 1 115 4 150 5 l62 2 0 -332z"/>
<path d="M2568 2893 l-38 -4 0 -218 0 -218 55 15 55 15 0 209 c0 192 -1 208
-17 206 -10 -1 -35 -3 -55 -5z"/>
</g>
</svg>
